<svg xmlns="http://www.w3.org/2000/svg" viewBox="0 0 800 136"><style>.st0{display:none;} .st1{display:inline;} .st2{fill:#FFFFFF;} .st3{fill:none;stroke:#9882CE;stroke-width:4;stroke-miterlimit:10;} .st4{fill:#B3E3FF;stroke:#404040;stroke-width:4;stroke-miterlimit:10;} .st5{fill:#FFFFFF;stroke:#404040;stroke-width:4;stroke-miterlimit:10;} .st6{fill:none;stroke:#404040;stroke-width:4;stroke-linecap:round;stroke-linejoin:round;stroke-miterlimit:10;} .st7{fill:#B18BE8;stroke:#404040;stroke-width:4;stroke-linecap:round;stroke-linejoin:round;stroke-miterlimit:10;} .st8{fill:#404040;} .st9{fill:none;stroke:#404040;stroke-width:4;stroke-miterlimit:10;} .st10{fill:#B18BE8;stroke:#404040;stroke-width:4;stroke-miterlimit:10;} .st11{fill:#4ED1A1;stroke:#404040;stroke-width:4;stroke-miterlimit:10;} .st12{fill:none;stroke:#CCCCCC;stroke-width:7;stroke-linecap:round;stroke-linejoin:round;stroke-miterlimit:10;} .st13{fill:#FFFFFF;stroke:#CCCCCC;stroke-width:7;stroke-linecap:round;stroke-linejoin:round;stroke-miterlimit:10;} .st14{fill:none;stroke:#404040;stroke-width:7;stroke-miterlimit:10;} .st15{fill:#B3E3FF;stroke:#404040;stroke-width:7;stroke-miterlimit:10;} .st16{fill:#CCCCCC;} .st17{fill:#FFFFFF;stroke:#404040;stroke-width:4;stroke-linejoin:round;stroke-miterlimit:10;} .st18{fill:#FFFFFF;stroke:#404040;stroke-width:4;stroke-linecap:round;stroke-linejoin:round;stroke-miterlimit:10;} .st19{fill:#B3E3FF;stroke:#404040;stroke-width:4;stroke-linejoin:round;stroke-miterlimit:10;} .st20{fill:none;stroke:#CCCCCC;stroke-linecap:round;stroke-linejoin:round;stroke-miterlimit:10;} .st21{fill:#999999;} .st22{fill:#4ED1A1;stroke:#404040;stroke-width:4;stroke-linecap:round;stroke-linejoin:round;stroke-miterlimit:10;} .st23{fill:#4CD3D6;stroke:#404040;stroke-width:4;stroke-linejoin:round;stroke-miterlimit:10;} .st24{fill:none;stroke:#59AFE1;stroke-width:4;stroke-miterlimit:10;} .st25{fill:#59AFE1;stroke:#404040;stroke-width:4;stroke-linejoin:round;stroke-miterlimit:10;} .st26{fill:#FFFFFF;stroke:#59AFE1;stroke-width:4;stroke-miterlimit:10;} .st27{fill:#B3E3FF;stroke:#404040;stroke-width:4;stroke-linecap:round;stroke-linejoin:round;stroke-miterlimit:10;} .st28{fill:#FC8363;stroke:#404040;stroke-width:4;stroke-linecap:round;stroke-linejoin:round;stroke-miterlimit:10;} .st29{fill:#CCCCCC;stroke:#404040;stroke-width:4;stroke-miterlimit:10;} .st30{fill:#FFFFFF;stroke:#6693ED;stroke-width:4;stroke-miterlimit:10;} .st31{fill:none;stroke:#A97CDD;stroke-width:4;stroke-linecap:round;stroke-linejoin:round;stroke-miterlimit:10;} .st32{fill:none;stroke:#B3E3FF;stroke-width:4;stroke-linecap:round;stroke-linejoin:round;stroke-miterlimit:10;} .st33{fill:none;stroke:#4ED1A1;stroke-width:4;stroke-linecap:round;stroke-miterlimit:10;} .st34{fill:none;stroke:#4ED1A1;stroke-width:4;stroke-linecap:round;stroke-linejoin:round;stroke-miterlimit:10;} .st35{fill:#E24B88;stroke:#404040;stroke-width:4;stroke-linecap:round;stroke-linejoin:round;stroke-miterlimit:10;} .st36{fill:none;stroke:#DEEFF8;stroke-width:4;stroke-miterlimit:10;} .st37{fill:none;stroke:#CCCCCC;stroke-width:4;stroke-linecap:round;stroke-linejoin:round;} .st38{fill:none;stroke:#CCCCCC;stroke-width:4;stroke-linecap:round;stroke-linejoin:round;stroke-dasharray:0,14.3051;} .st39{fill:none;stroke:#CCCCCC;stroke-width:4;stroke-linecap:round;stroke-linejoin:round;stroke-dasharray:0,14.1689;} .st40{fill:none;stroke:#CCCCCC;stroke-width:4;stroke-linecap:round;stroke-linejoin:round;stroke-dasharray:0,13.9788;} .st41{fill:none;stroke:#CCCCCC;stroke-width:4;stroke-linecap:round;stroke-linejoin:round;stroke-dasharray:0,14.7877;} .st42{fill:none;stroke:#CCCCCC;stroke-width:4;stroke-linecap:round;stroke-linejoin:round;stroke-dasharray:0,14.9632;} .st43{fill:none;stroke:#CCCCCC;stroke-width:4;stroke-linecap:round;stroke-linejoin:round;stroke-dasharray:0,12.543;} .st44{fill:none;stroke:#CCCCCC;stroke-width:4;stroke-linecap:round;stroke-linejoin:round;stroke-dasharray:0,13.6844;} .st45{fill:none;stroke:#CCCCCC;stroke-width:4;stroke-linecap:round;stroke-linejoin:round;stroke-dasharray:0,13.7717;} .st46{fill:none;stroke:#CCCCCC;stroke-width:4;stroke-linecap:round;stroke-linejoin:round;stroke-dasharray:0,13.6492;} .st47{fill:none;stroke:#CCCCCC;stroke-width:4;stroke-linecap:round;stroke-linejoin:round;stroke-dasharray:0,13.907;} .st48{fill:#4CD3D6;stroke:#404040;stroke-width:4;stroke-linecap:round;stroke-linejoin:round;stroke-miterlimit:10;} .st49{fill:none;stroke:#CCCCCC;stroke-width:4;stroke-linecap:round;stroke-linejoin:round;stroke-dasharray:0,14.9858;} .st50{fill:none;stroke:#CCCCCC;stroke-width:4;stroke-linecap:round;stroke-linejoin:round;stroke-dasharray:0,14.0118;} .st51{fill:none;stroke:#CCCCCC;stroke-width:4;stroke-linecap:round;stroke-linejoin:round;stroke-dasharray:0,14.1243;} .st52{fill:none;} .st53{fill:#FFFFFF;stroke:#404040;stroke-width:7;stroke-linecap:round;stroke-linejoin:round;stroke-miterlimit:10;} .st54{fill:#59AFE1;stroke:#404040;stroke-width:7;stroke-linejoin:round;stroke-miterlimit:10;} .st55{fill:#E24B88;stroke:#404040;stroke-width:7;stroke-linecap:round;stroke-linejoin:round;stroke-miterlimit:10;} .st56{fill:none;stroke:#404040;stroke-width:7;stroke-linecap:round;stroke-linejoin:round;stroke-miterlimit:10;} .st57{fill:none;stroke:#CCCCCC;stroke-width:4;stroke-linecap:round;stroke-linejoin:round;stroke-miterlimit:10;} .st58{fill:#FFFFFF;stroke:#CCCCCC;stroke-width:4;stroke-linecap:round;stroke-linejoin:round;stroke-miterlimit:10;} .st59{fill:#F5F5F5;} .st60{fill:#3873AE;} .st61{fill:#75706C;} .st62{fill:none;stroke:#B3E3FF;stroke-width:4;stroke-miterlimit:10;} .st63{fill:#6F6F6F;} .st64{fill:none;stroke:#6F6F6F;stroke-width:2;stroke-miterlimit:10;} .st65{fill:none;stroke:#6F6F6F;stroke-width:3;stroke-miterlimit:10;} .st66{fill:#FFFFFF;stroke:#404040;stroke-width:6;stroke-miterlimit:10;} .st67{fill:#B3E3FF;stroke:#404040;stroke-width:6;stroke-miterlimit:10;}</style><path class="st57" d="M282.8 68c0 22.8-18.5 41.3-41.3 41.3m41.3-41.3c0-22.8 18.5-41.3 41.3-41.3h43.7"/><path class="st9" d="M526.9 68c0 22.8-18.5 41.3-41.3 41.3m41.3-41.3c0-22.8 18.5-41.3 41.3-41.3h43.7"/><circle class="st25" cx="611.9" cy="26.7" r="21.2"/><path class="st9" d="M188.1 109.3h297.5"/><path class="st19" d="M209.3 109.3c0 11.7-9.5 21.2-21.2 21.2s-21.2-9.5-21.2-21.2 9.5-21.2 21.2-21.2c11.7.1 21.2 9.6 21.2 21.2zm179.6 0c0 11.7-9.5 21.2-21.2 21.2s-21.2-9.5-21.2-21.2 9.5-21.2 21.2-21.2c11.8.1 21.2 9.6 21.2 21.2zm76.7 0c0 11.7-9.5 21.2-21.2 21.2s-21.2-9.5-21.2-21.2 9.5-21.2 21.2-21.2c11.8.1 21.2 9.6 21.2 21.2z"/><circle class="st58" cx="367.8" cy="26.7" r="21.2"/><path class="st2" d="M408.1 26.7h115.3"/><path class="st16" d="M408.1 29.2c-.7 0-1.3-.3-1.8-.7-.5-.5-.7-1.1-.7-1.8s.3-1.3.7-1.8c.9-.9 2.6-.9 3.5 0 .5.5.7 1.1.7 1.8s-.3 1.3-.7 1.8c-.4.5-1.1.7-1.7.7zm93.6-2.5c0-1.4 1.1-2.5 2.5-2.5s2.5 1.1 2.5 2.5-1.1 2.5-2.5 2.5-2.5-1.1-2.5-2.5zm-19.3 0c0-1.4 1.1-2.5 2.5-2.5s2.5 1.1 2.5 2.5-1.1 2.5-2.5 2.5c-1.3 0-2.5-1.1-2.5-2.5zm-19.2 0c0-1.4 1.1-2.5 2.5-2.5s2.5 1.1 2.5 2.5-1.1 2.5-2.5 2.5-2.5-1.1-2.5-2.5zm-19.2 0c0-1.4 1.1-2.5 2.5-2.5s2.5 1.1 2.5 2.5-1.1 2.5-2.5 2.5-2.5-1.1-2.5-2.5zm-19.2 0c0-1.4 1.1-2.5 2.5-2.5s2.5 1.1 2.5 2.5-1.1 2.5-2.5 2.5-2.5-1.1-2.5-2.5zm98.6 2.5c-.7 0-1.3-.3-1.8-.7-.5-.5-.7-1.1-.7-1.8s.3-1.3.7-1.8c.9-.9 2.6-.9 3.5 0 .5.5.7 1.1.7 1.8s-.3 1.3-.7 1.8c-.4.5-1 .7-1.7.7z"/></svg>