<svg id="Layer_1" data-name="Layer 1" xmlns="http://www.w3.org/2000/svg" viewBox="0 0 800 326"><defs><style>.cls-1{fill:#fc8363;stroke:#404040;stroke-linecap:round;stroke-linejoin:round;stroke-width:4px;}</style></defs><title>git_hero</title><path class="cls-1" d="M500.4,153.7L409.3,62.6a13.4,13.4,0,0,0-19,0L371.4,81.5l24,24a16,16,0,0,1,20.2,20.3L438.7,149a16,16,0,1,1-9.6,9l-21.6-21.6v56.8a16,16,0,1,1-13.1-.5V135.5a15.8,15.8,0,0,1-5.2-3.5,16,16,0,0,1-3.4-17.5L362.1,90.8l-62.5,62.5a13.4,13.4,0,0,0,0,19l91.1,91.1a13.4,13.4,0,0,0,19,0l90.7-90.7A13.4,13.4,0,0,0,500.4,153.7Z"/></svg>