<svg xmlns="http://www.w3.org/2000/svg" viewBox="0 0 800 178"><style>.st0{display:none;} .st1{display:inline;} .st2{fill:#FFFFFF;} .st3{fill:none;stroke:#9882CE;stroke-width:4;stroke-miterlimit:10;} .st4{fill:#FFFFFF;stroke:#404040;stroke-width:4;stroke-linecap:round;stroke-linejoin:round;stroke-miterlimit:10;} .st5{fill:#FFFFFF;stroke:#404040;stroke-width:4;stroke-miterlimit:10;} .st6{fill:#B3E3FF;stroke:#404040;stroke-width:4;stroke-miterlimit:10;} .st7{fill:#B18BE8;stroke:#404040;stroke-width:4;stroke-miterlimit:10;} .st8{fill:#FFFFFF;stroke:#404040;stroke-width:6;stroke-miterlimit:10;} .st9{fill:#B3E3FF;stroke:#404040;stroke-width:6;stroke-miterlimit:10;} .st10{fill:#404040;} .st11{fill:none;stroke:#404040;stroke-width:4;stroke-linecap:round;stroke-linejoin:round;stroke-miterlimit:10;} .st12{fill:#B18BE8;stroke:#404040;stroke-width:4;stroke-linecap:round;stroke-linejoin:round;stroke-miterlimit:10;} .st13{fill:#444444;} .st14{fill:none;stroke:#404040;stroke-width:4;stroke-miterlimit:10;} .st15{fill:#4ED1A1;stroke:#404040;stroke-width:4;stroke-miterlimit:10;} .st16{fill:none;stroke:#CCCCCC;stroke-width:7;stroke-linecap:round;stroke-linejoin:round;stroke-miterlimit:10;} .st17{fill:#FFFFFF;stroke:#CCCCCC;stroke-width:7;stroke-linecap:round;stroke-linejoin:round;stroke-miterlimit:10;} .st18{fill:none;stroke:#404040;stroke-width:7;stroke-miterlimit:10;} .st19{fill:#B3E3FF;stroke:#404040;stroke-width:7;stroke-miterlimit:10;} .st20{fill:none;stroke:#CCCCCC;stroke-width:8;stroke-linecap:round;stroke-miterlimit:10;} .st21{fill:none;stroke:#404040;stroke-width:8;stroke-linecap:round;stroke-miterlimit:10;} .st22{fill:#FFFFFF;stroke:#404040;stroke-width:4;stroke-linejoin:round;stroke-miterlimit:10;} .st23{fill:#B3E3FF;stroke:#404040;stroke-width:4;stroke-linejoin:round;stroke-miterlimit:10;} .st24{fill:none;stroke:#CCCCCC;stroke-linecap:round;stroke-linejoin:round;stroke-miterlimit:10;} .st25{fill:#999999;} .st26{fill:#4ED1A1;stroke:#404040;stroke-width:4;stroke-linecap:round;stroke-linejoin:round;stroke-miterlimit:10;} .st27{fill:#4CD3D6;stroke:#404040;stroke-width:4;stroke-linejoin:round;stroke-miterlimit:10;} .st28{fill:none;stroke:#59AFE1;stroke-width:4;stroke-miterlimit:10;} .st29{fill:#59AFE1;stroke:#404040;stroke-width:4;stroke-linejoin:round;stroke-miterlimit:10;} .st30{fill:none;stroke:#404040;stroke-width:8;stroke-linecap:round;stroke-linejoin:round;stroke-miterlimit:10;stroke-dasharray:0,30;} .st31{fill:#FFFFFF;stroke:#59AFE1;stroke-width:4;stroke-miterlimit:10;} .st32{fill:#FC8363;stroke:#404040;stroke-width:4;stroke-linecap:round;stroke-linejoin:round;stroke-miterlimit:10;} .st33{fill:#CCCCCC;stroke:#404040;stroke-width:4;stroke-miterlimit:10;} .st34{fill:#FFFFFF;stroke:#6693ED;stroke-width:4;stroke-miterlimit:10;} .st35{fill:none;stroke:#A97CDD;stroke-width:4;stroke-linecap:round;stroke-linejoin:round;stroke-miterlimit:10;} .st36{fill:none;stroke:#B3E3FF;stroke-width:4;stroke-linecap:round;stroke-linejoin:round;stroke-miterlimit:10;} .st37{fill:none;stroke:#4ED1A1;stroke-width:4;stroke-linecap:round;stroke-miterlimit:10;} .st38{fill:none;stroke:#4ED1A1;stroke-width:4;stroke-linecap:round;stroke-linejoin:round;stroke-miterlimit:10;} .st39{fill:#E24B88;stroke:#404040;stroke-width:4;stroke-linecap:round;stroke-linejoin:round;stroke-miterlimit:10;} .st40{fill:none;stroke:#DEEFF8;stroke-width:4;stroke-miterlimit:10;} .st41{fill:none;stroke:#CCCCCC;stroke-width:4;stroke-linecap:round;stroke-linejoin:round;} .st42{fill:none;stroke:#CCCCCC;stroke-width:4;stroke-linecap:round;stroke-linejoin:round;stroke-dasharray:0,14.3051;} .st43{fill:none;stroke:#CCCCCC;stroke-width:4;stroke-linecap:round;stroke-linejoin:round;stroke-dasharray:0,14.1689;} .st44{fill:none;stroke:#CCCCCC;stroke-width:4;stroke-linecap:round;stroke-linejoin:round;stroke-dasharray:0,13.9788;} .st45{fill:none;stroke:#CCCCCC;stroke-width:4;stroke-linecap:round;stroke-linejoin:round;stroke-dasharray:0,14.7877;} .st46{fill:none;stroke:#CCCCCC;stroke-width:4;stroke-linecap:round;stroke-linejoin:round;stroke-dasharray:0,14.9632;} .st47{fill:#B3E3FF;stroke:#404040;stroke-width:4;stroke-linecap:round;stroke-linejoin:round;stroke-miterlimit:10;} .st48{fill:none;stroke:#CCCCCC;stroke-width:4;stroke-linecap:round;stroke-linejoin:round;stroke-dasharray:0,12.543;} .st49{fill:none;stroke:#CCCCCC;stroke-width:4;stroke-linecap:round;stroke-linejoin:round;stroke-dasharray:0,13.6844;} .st50{fill:none;stroke:#CCCCCC;stroke-width:4;stroke-linecap:round;stroke-linejoin:round;stroke-dasharray:0,13.7717;} .st51{fill:none;stroke:#CCCCCC;stroke-width:4;stroke-linecap:round;stroke-linejoin:round;stroke-dasharray:0,13.6492;} .st52{fill:none;stroke:#CCCCCC;stroke-width:4;stroke-linecap:round;stroke-linejoin:round;stroke-dasharray:0,13.907;} .st53{fill:#4CD3D6;stroke:#404040;stroke-width:4;stroke-linecap:round;stroke-linejoin:round;stroke-miterlimit:10;} .st54{fill:none;stroke:#CCCCCC;stroke-width:4;stroke-linecap:round;stroke-linejoin:round;stroke-dasharray:0,14.9858;} .st55{fill:none;stroke:#CCCCCC;stroke-width:4;stroke-linecap:round;stroke-linejoin:round;stroke-dasharray:0,14.0118;} .st56{fill:none;stroke:#CCCCCC;stroke-width:4;stroke-linecap:round;stroke-linejoin:round;stroke-dasharray:0,14.1243;} .st57{fill:none;} .st58{fill:#FFFFFF;stroke:#404040;stroke-width:7;stroke-linecap:round;stroke-linejoin:round;stroke-miterlimit:10;} .st59{fill:#59AFE1;stroke:#404040;stroke-width:7;stroke-linejoin:round;stroke-miterlimit:10;} .st60{fill:#E24B88;stroke:#404040;stroke-width:7;stroke-linecap:round;stroke-linejoin:round;stroke-miterlimit:10;} .st61{fill:none;stroke:#404040;stroke-width:7;stroke-linecap:round;stroke-linejoin:round;stroke-miterlimit:10;} .st62{fill:none;stroke:#CCCCCC;stroke-width:4;stroke-linecap:round;stroke-linejoin:round;stroke-miterlimit:10;} .st63{fill:#FFFFFF;stroke:#CCCCCC;stroke-width:4;stroke-linecap:round;stroke-linejoin:round;stroke-miterlimit:10;} .st64{fill:#F5F5F5;} .st65{fill:#3873AE;} .st66{fill:#75706C;} .st67{fill:none;stroke:#B3E3FF;stroke-width:4;stroke-miterlimit:10;} .st68{fill:#6F6F6F;} .st69{fill:none;stroke:#6F6F6F;stroke-width:2;stroke-miterlimit:10;} .st70{fill:none;stroke:#6F6F6F;stroke-width:3;stroke-miterlimit:10;}</style><g id="centralized_x5F_workflow_x5F_3_1_"><path id="repo1_77_" class="st7" d="M125.2 117c0-12.4 28.2-22.4 63-22.4s63 10 63 22.4m-126 0v27.9c0 3 1.7 5.9 4.7 8.5 9.4 8.2 32 13.9 58.3 13.9 26.4 0 48.9-5.8 58.3-13.9 3-2.6 4.7-5.5 4.7-8.5v-27.9"/><path class="st34" d="M251.2 117c0 12.4-28.2 22.4-63 22.4s-63-10-63-22.4c0-12.4 28.2-22.4 63-22.4s63 10 63 22.4z"/><path id="repo1_76_" class="st7" d="M125.2 89.1c0-12.4 28.2-22.4 63-22.4s63 10 63 22.4m-126 0v27.9c0 3 1.7 5.9 4.7 8.5 9.4 8.2 32 13.9 58.3 13.9 26.4 0 48.9-5.8 58.3-13.9 3-2.6 4.7-5.5 4.7-8.5v-27.9"/><path class="st34" d="M251.2 89.1c0 12.4-28.2 22.4-63 22.4s-63-10-63-22.4 28.2-22.4 63-22.4 63 10 63 22.4z"/><path id="repo1_68_" class="st7" d="M125.2 61.2c0-12.4 28.2-22.4 63-22.4s63 10 63 22.4m-126 0v27.9c0 3 1.7 5.9 4.7 8.5 9.4 8.2 32 13.9 58.3 13.9 26.4 0 48.9-5.8 58.3-13.9 3-2.6 4.7-5.5 4.7-8.5v-27.9"/><path class="st34" d="M251.2 61.2c0 12.4-28.2 22.4-63 22.4s-63-10-63-22.4c0-12.4 28.2-22.4 63-22.4s63 10 63 22.4z"/><path id="repo1_67_" class="st7" d="M125.2 33.3c0-12.4 28.2-22.4 63-22.4s63 10 63 22.4m-126 0v27.9c0 3 1.7 5.9 4.7 8.5 9.4 8.2 32 13.9 58.3 13.9 26.4 0 48.9-5.8 58.3-13.9 3-2.6 4.7-5.5 4.7-8.5v-27.9"/><path class="st5" d="M251.2 33.3c0 12.4-28.2 22.4-63 22.4s-63-10-63-22.4c0-12.4 28.2-22.4 63-22.4s63 10 63 22.4z"/><path id="repo1_66_" class="st6" d="M339.2 117c0-12.4 28.2-22.4 63-22.4s63 10 63 22.4m-126 0v27.9c0 3 1.7 5.9 4.7 8.5 9.4 8.2 32 13.9 58.3 13.9 26.4 0 48.9-5.8 58.3-13.9 3-2.6 4.7-5.5 4.7-8.5v-27.9"/><path class="st34" d="M465.2 117c0 12.4-28.2 22.4-63 22.4s-63-10-63-22.4c0-12.4 28.2-22.4 63-22.4s63 10 63 22.4z"/><path id="repo1_65_" class="st6" d="M339.2 89.1c0-12.4 28.2-22.4 63-22.4s63 10 63 22.4m-126 0v27.9c0 3 1.7 5.9 4.7 8.5 9.4 8.2 32 13.9 58.3 13.9 26.4 0 48.9-5.8 58.3-13.9 3-2.6 4.7-5.5 4.7-8.5v-27.9"/><path class="st34" d="M465.2 89.1c0 12.4-28.2 22.4-63 22.4s-63-10-63-22.4 28.2-22.4 63-22.4 63 10 63 22.4z"/><path id="repo1_62_" class="st6" d="M339.2 61.2c0-12.4 28.2-22.4 63-22.4s63 10 63 22.4m-126 0v27.9c0 3 1.7 5.9 4.7 8.5 9.4 8.2 32 13.9 58.3 13.9 26.4 0 48.9-5.8 58.3-13.9 3-2.6 4.7-5.5 4.7-8.5v-27.9"/><path class="st34" d="M465.2 61.2c0 12.4-28.2 22.4-63 22.4s-63-10-63-22.4c0-12.4 28.2-22.4 63-22.4s63 10 63 22.4z"/><path id="repo1_61_" class="st6" d="M339.2 33.3c0-12.4 28.2-22.4 63-22.4s63 10 63 22.4m-126 0v27.9c0 3 1.7 5.9 4.7 8.5 9.4 8.2 32 13.9 58.3 13.9 26.4 0 48.9-5.8 58.3-13.9 3-2.6 4.7-5.5 4.7-8.5v-27.9"/><path class="st5" d="M465.2 33.3c0 12.4-28.2 22.4-63 22.4s-63-10-63-22.4c0-12.4 28.2-22.4 63-22.4s63 10 63 22.4z"/><path id="repo1_60_" class="st15" d="M548.8 117c0-12.4 28.2-22.4 63-22.4s63 10 63 22.4m-126 0v27.9c0 3 1.7 5.9 4.7 8.5 9.4 8.2 32 13.9 58.3 13.9 26.4 0 48.9-5.8 58.3-13.9 3-2.6 4.7-5.5 4.7-8.5v-27.9"/><path class="st34" d="M674.8 117c0 12.4-28.2 22.4-63 22.4s-63-10-63-22.4c0-12.4 28.2-22.4 63-22.4s63 10 63 22.4z"/><path id="repo1_59_" class="st15" d="M548.8 89.1c0-12.4 28.2-22.4 63-22.4s63 10 63 22.4m-126 0v27.9c0 3 1.7 5.9 4.7 8.5 9.4 8.2 32 13.9 58.3 13.9 26.4 0 48.9-5.8 58.3-13.9 3-2.6 4.7-5.5 4.7-8.5v-27.9"/><path class="st34" d="M674.8 89.1c0 12.4-28.2 22.4-63 22.4s-63-10-63-22.4 28.2-22.4 63-22.4 63 10 63 22.4z"/><path id="repo1_58_" class="st15" d="M548.8 61.2c0-12.4 28.2-22.4 63-22.4s63 10 63 22.4m-126 0v27.9c0 3 1.7 5.9 4.7 8.5 9.4 8.2 32 13.9 58.3 13.9 26.4 0 48.9-5.8 58.3-13.9 3-2.6 4.7-5.5 4.7-8.5v-27.9"/><path class="st34" d="M674.8 61.2c0 12.4-28.2 22.4-63 22.4s-63-10-63-22.4c0-12.4 28.2-22.4 63-22.4s63 10 63 22.4z"/><path id="repo1_57_" class="st15" d="M548.8 33.3c0-12.4 28.2-22.4 63-22.4s63 10 63 22.4m-126 0v27.9c0 3 1.7 5.9 4.7 8.5 9.4 8.2 32 13.9 58.3 13.9 26.4 0 48.9-5.8 58.3-13.9 3-2.6 4.7-5.5 4.7-8.5v-27.9"/><path class="st5" d="M674.8 33.3c0 12.4-28.2 22.4-63 22.4s-63-10-63-22.4c0-12.4 28.2-22.4 63-22.4s63 10 63 22.4z"/></g></svg>