<?xml version="1.0" encoding="utf-8"?>
<!-- Generator: Adobe Illustrator 25.2.3, SVG Export Plug-In . SVG Version: 6.00 Build 0)  -->
<svg version="1.1" id="Layer_1" xmlns="http://www.w3.org/2000/svg" xmlns:xlink="http://www.w3.org/1999/xlink" x="0px" y="0px"
	 viewBox="0 0 658.5 480.5" style="enable-background:new 0 0 658.5 480.5;" xml:space="preserve">
<style type="text/css">
	.st0{fill:#FFFFFF;stroke:#CCCCCC;stroke-width:4;stroke-linecap:round;stroke-linejoin:round;}
	.st1{fill:#B18BE8;stroke:#404040;stroke-width:4;stroke-linecap:round;stroke-linejoin:round;}
	.st2{fill:none;stroke:#404040;stroke-width:4;stroke-linecap:round;stroke-linejoin:round;}
	.st3{fill:#404040;}
	.st4{fill:none;stroke:#404040;stroke-width:4;stroke-miterlimit:10;}
	.st5{fill:#B18BE8;stroke:#404040;stroke-width:4;stroke-miterlimit:10;}
	.st6{fill:#4CD3D6;stroke:#404040;stroke-width:4;stroke-linejoin:round;}
	.st7{fill:#FFFFFF;stroke:#404040;stroke-width:4;stroke-miterlimit:10;}
	.st8{fill:#FFFFFF;stroke:#404040;stroke-width:4;stroke-linecap:round;stroke-linejoin:round;}
	.st9{fill:#4ED1A1;stroke:#404040;stroke-width:4;stroke-miterlimit:10;}
	.st10{fill:#FFBD17;stroke:#404040;stroke-width:4;stroke-miterlimit:10;}
	.st11{fill:#414141;}
</style>
<path class="st0" d="M97.9,265.8h252"/>
<circle class="st0" cx="254.3" cy="265.8" r="21"/>
<circle class="st0" cx="351.3" cy="265.8" r="21"/>
<path class="st1" d="M299.3,42.5h103.8v50H299.3C299.3,92.6,299.3,42.6,299.3,42.5z"/>
<path class="st0" d="M304.4,354.4h93.8v50h-93.8V354.4z"/>
<path class="st2" d="M351.3,138.2v-23.5"/>
<path class="st2" d="M362.1,129.6l-10.8,10.8l-10.9-10.8"/>
<path class="st2" d="M351.3,333.6v-23.5"/>
<path class="st2" d="M340.4,318.8l10.9-10.8l10.9,10.8"/>
<path class="st3" d="M325.1,73.8V63h6.6v1.4h-5.1v3.5h4.6v1.4h-4.6v4.6C326.6,73.9,325.1,73.9,325.1,73.8z"/>
<path class="st3" d="M339.9,71.8c-0.5,1.4-1.8,2.4-3.3,2.3c-2.2-0.1-3.9-1.9-3.8-4.1c0.1-2,1.6-3.6,3.6-3.7c2.3,0,3.5,1.6,3.5,3.9
	c0,0.2,0,0.3,0,0.5h-5.6c0,1.2,0.9,2.2,2.1,2.2c0,0,0.1,0,0.1,0c1,0.1,1.8-0.6,2.1-1.5L339.9,71.8z M338.4,69.4c0-1-0.8-1.9-1.8-1.9
	c-0.1,0-0.1,0-0.2,0c-1.1,0-1.9,0.8-2,1.9H338.4z"/>
<path class="st3" d="M344.1,69.6l2-0.3c0.3,0,0.6-0.2,0.6-0.5c0,0,0,0,0,0c0-0.7-0.6-1.3-1.4-1.3c-0.1,0-0.2,0-0.2,0
	c-0.9-0.1-1.6,0.6-1.7,1.5c0,0,0,0,0,0l-1.4-0.3c0.2-1.5,1.5-2.5,3-2.4c2.2,0,3.1,1.3,3.1,2.7v3.7c0,0.4,0,0.8,0.1,1.2h-1.4
	c-0.1-0.3-0.1-0.7-0.1-1c-0.5,0.8-1.4,1.3-2.4,1.2c-1.2,0.1-2.3-0.8-2.4-2c-0.1-1.2,0.8-2.3,2-2.4C344,69.6,344.1,69.6,344.1,69.6z
	 M346.7,70.7v-0.3l-2.3,0.3c-0.6,0-1.1,0.5-1.1,1.1c0,0.6,0.5,1.1,1.2,1.1c0,0,0,0,0,0c1.1,0.1,2-0.6,2.1-1.7
	C346.7,71,346.7,70.8,346.7,70.7z"/>
<path class="st3" d="M352.9,66.5h1.6v1.3h-1.6v3.8c-0.1,0.5,0.3,0.9,0.7,1c0.1,0,0.2,0,0.3,0c0.2,0,0.4,0,0.6-0.1v1.2
	c-0.3,0.1-0.7,0.1-1,0.1c-1.1,0.1-2-0.7-2.1-1.8c0-0.1,0-0.2,0-0.3v-4H350v-1.3h0.4c0.5,0.1,1.1-0.3,1.1-0.8c0-0.1,0-0.2,0-0.3v-1.2
	h1.3L352.9,66.5L352.9,66.5z"/>
<path class="st3" d="M359.7,74.1c-1.5,0-2.8-1.2-2.8-2.7c0-0.1,0-0.2,0-0.3v-4.6h1.5v4.4c-0.1,0.9,0.5,1.7,1.4,1.9
	c0.1,0,0.2,0,0.3,0c0.9,0.1,1.7-0.7,1.8-1.6c0-0.1,0-0.2,0-0.3v-4.5h1.5v6c0,0.5,0,0.9,0.1,1.4H362c0-0.3-0.1-0.6-0.1-0.9
	C361.5,73.7,360.6,74.1,359.7,74.1z"/>
<path class="st3" d="M370.4,67.9c-0.2,0-0.4,0-0.6,0c-1.2,0-2,0.7-2,2.3v3.7h-1.5v-7.4h1.4v1.3c0.4-0.9,1.2-1.5,2.2-1.5
	c0.2,0,0.3,0,0.5,0L370.4,67.9L370.4,67.9z"/>
<path class="st3" d="M378.9,71.8c-0.5,1.4-1.8,2.4-3.3,2.3c-2.2-0.1-3.9-1.9-3.8-4.1c0.1-2,1.6-3.6,3.6-3.7c2.3,0,3.5,1.6,3.5,3.9
	c0,0.2,0,0.3,0,0.5h-5.6c0,1.2,0.9,2.2,2.1,2.2c0,0,0.1,0,0.1,0c1,0.1,1.8-0.6,2.1-1.5L378.9,71.8z M377.5,69.4c0-1-0.8-1.9-1.8-1.9
	c-0.1,0-0.1,0-0.2,0c-1.1,0-1.9,0.8-2,1.9H377.5z"/>
<path class="st4" d="M170.9,224.8c0,22.6-18.4,41-41,41h-32 M170.9,224.8c0-22.6,18.4-41,41-41h22.4"/>
<circle class="st5" cx="255.3" cy="183.8" r="21"/>
<circle class="st5" cx="351.3" cy="183.8" r="21"/>
<path class="st4" d="M276.3,183.8h54"/>
<circle class="st0" cx="76.9" cy="265.8" r="21"/>
<path class="st2" d="M403.1,70.7h97.4"/>
<path class="st2" d="M517.5,410.4c3.5,7.9,12.8,11.4,20.7,7.8c3.5-1.6,6.3-4.4,7.8-7.9"/>
<path class="st6" d="M531.4,446.8c0,0,22.5,0.7,31-4.3c14-8.1-0.2-24.8-11.3-27.6c-3.4,6.3-10.9,10.7-19.7,10.7h0.2
	c-8.8,0-16.3-4.4-19.7-10.7c-11,2.8-25.2,19.6-11.3,27.6c8.5,4.9,31,4.3,31,4.3"/>
<circle class="st6" cx="531.7" cy="389.5" r="18.9"/>
<path class="st7" d="M540.5,379.5c2.1,16.4,6.5,2,9.7,14c-2.2,10.2-12.2,16.7-22.5,14.5c-8.7-1.9-14.9-9.6-14.9-18.5
	c0-1.1,0.1-2.1,0.2-3.2C514,386.4,534.7,395.4,540.5,379.5L540.5,379.5L540.5,379.5z"/>
<path class="st2" d="M542.1,406.2v8.6 M521.8,414.9v-8.5"/>
<path class="st8" d="M516.8,296.9c3.5,7.9,12.8,11.4,20.7,7.8c3.5-1.6,6.3-4.4,7.9-7.9"/>
<path class="st5" d="M531,333.2c0,0,22.5,0.7,31-4.3c14-8.1-0.2-24.8-11.3-27.6c-3.4,6.3-10.9,10.7-19.7,10.7h0.2
	c-8.8,0-16.3-4.4-19.7-10.7c-11,2.8-25.2,19.6-11.3,27.6c8.5,4.9,31,4.3,31,4.3"/>
<circle class="st5" cx="531" cy="276" r="18.9"/>
<path class="st8" d="M539.3,258.9c-5.5,14.1-16,0.4-26.8,21c2.2,10.2,12.2,16.7,22.5,14.5c8.7-1.9,14.9-9.6,14.9-18.5
	C549.9,274.9,540.8,271.1,539.3,258.9z M541.3,291.8v9.5 M521.1,301.4v-9.3"/>
<path class="st5" d="M512.1,276.4c0,0,0,8.7,3.8,11.9c-3,1.4-9.5-0.7-8.6-1.4C510.9,284.3,512.1,276.4,512.1,276.4z M549.9,276
	c0,0-0.2,9.1-4,12.3c3,1.4,9.5-0.7,8.6-1.4C550.9,284.3,549.9,276,549.9,276L549.9,276z"/>
<path class="st2" d="M517.2,80.3c3.5,7.9,12.8,11.4,20.7,7.8c3.5-1.6,6.3-4.4,7.9-7.9"/>
<path class="st9" d="M531.1,116.7c0,0,22.5,0.7,31-4.3c14-8.1-0.2-24.8-11.3-27.6c-3.4,6.3-10.9,10.7-19.7,10.7h0.2
	c-8.8,0-16.3-4.4-19.7-10.7c-11,2.8-25.2,19.6-11.3,27.6c8.5,4.9,31,4.3,31,4.3"/>
<circle class="st9" cx="531.5" cy="59.4" r="18.9"/>
<path class="st7" d="M518.6,45.5c2.1,16.4,28,5.9,31.2,17.9c-2.2,10.2-12.2,16.7-22.5,14.5c-8.7-1.9-14.9-9.6-14.9-18.5
	c0-1.1,0.1-2.1,0.2-3.2C513.7,56.2,519.4,59.4,518.6,45.5z"/>
<path class="st2" d="M541.7,76.1v8.7"/>
<path class="st2" d="M521.5,84.8v-8.5"/>
<path class="st8" d="M516.5,189.4c3.5,7.9,12.8,11.4,20.7,7.8c3.5-1.6,6.3-4.4,7.9-7.9"/>
<path class="st10" d="M530.8,225.8c0,0,22.5,0.7,31-4.3c14-8.1-0.2-24.8-11.3-27.6c-3.4,6.3-10.9,10.7-19.7,10.7h0.2
	c-8.8,0-16.3-4.4-19.7-10.7c-11,2.8-25.2,19.6-11.3,27.6c8.5,4.9,31,4.3,31,4.3"/>
<ellipse transform="matrix(0.1602 -0.9871 0.9871 0.1602 279.4569 665.3822)" class="st10" cx="530.8" cy="168.5" rx="18.9" ry="18.9"/>
<path class="st8" d="M539.1,151.4c-5.5,14.1-16,0.4-26.8,21c2.2,10.2,12.2,16.7,22.5,14.5c8.7-1.9,14.9-9.6,14.9-18.5
	C549.7,167.4,540.5,163.6,539.1,151.4z M541.1,184.3v9.5 M520.9,193.9v-9.3"/>
<path class="st5" d="M511.9,168.9c0,0,0,8.7,3.8,11.9c-3,1.4-9.5-0.7-8.6-1.4C510.7,176.9,511.9,168.9,511.9,168.9z M549.7,168.5
	c0,0-0.2,9.1-4,12.3c3,1.4,9.5-0.7,8.6-1.4C550.7,176.9,549.7,168.5,549.7,168.5L549.7,168.5z"/>
<path class="st2" d="M530.8,124.7v13.9"/>
<path class="st2" d="M530.8,234.7v13.9"/>
<path class="st2" d="M530.8,344.7v13.9"/>
<g>
	<path class="st11" d="M334.9,385.5v-10h2l2.4,7.1c0.2,0.7,0.4,1.2,0.5,1.5c0.1-0.4,0.3-0.9,0.5-1.6l2.4-7h1.8v10h-1.3v-8.4
		l-2.9,8.4h-1.2l-2.9-8.5v8.5H334.9z"/>
	<path class="st11" d="M351.9,384.6c-0.5,0.4-0.9,0.7-1.3,0.8c-0.4,0.2-0.9,0.2-1.4,0.2c-0.8,0-1.4-0.2-1.8-0.6
		c-0.4-0.4-0.6-0.9-0.6-1.5c0-0.4,0.1-0.7,0.2-1c0.2-0.3,0.4-0.5,0.6-0.7c0.3-0.2,0.6-0.3,0.9-0.4c0.2-0.1,0.6-0.1,1.1-0.2
		c1-0.1,1.7-0.3,2.2-0.4c0-0.2,0-0.3,0-0.3c0-0.5-0.1-0.9-0.3-1.1c-0.3-0.3-0.8-0.4-1.4-0.4c-0.6,0-1,0.1-1.3,0.3
		c-0.3,0.2-0.5,0.6-0.6,1.1l-1.2-0.2c0.1-0.5,0.3-0.9,0.5-1.2c0.3-0.3,0.6-0.6,1.1-0.7c0.5-0.2,1-0.3,1.6-0.3s1.1,0.1,1.5,0.2
		s0.7,0.3,0.9,0.6c0.2,0.2,0.3,0.5,0.4,0.8c0,0.2,0.1,0.6,0.1,1.1v1.6c0,1.1,0,1.9,0.1,2.2s0.2,0.6,0.3,0.9h-1.3
		C352,385.3,351.9,385,351.9,384.6z M351.8,381.9c-0.4,0.2-1.1,0.3-2,0.5c-0.5,0.1-0.9,0.2-1.1,0.2c-0.2,0-0.4,0.2-0.5,0.4
		c-0.1,0.2-0.2,0.4-0.2,0.6c0,0.3,0.1,0.6,0.4,0.8c0.2,0.2,0.6,0.3,1.1,0.3s0.9-0.1,1.3-0.3c0.4-0.2,0.6-0.5,0.8-0.9
		c0.1-0.3,0.2-0.7,0.2-1.2V381.9L351.8,381.9z"/>
	<path class="st11" d="M355.6,376.9v-1.4h1.2v1.4H355.6z M355.6,385.5v-7.3h1.2v7.3H355.6z"/>
	<path class="st11" d="M359.4,385.5v-7.3h1.1v1c0.5-0.8,1.3-1.2,2.3-1.2c0.4,0,0.8,0.1,1.2,0.2c0.4,0.2,0.6,0.4,0.8,0.6
		s0.3,0.6,0.4,0.9c0,0.2,0.1,0.6,0.1,1.2v4.5h-1.2V381c0-0.5,0-0.9-0.1-1.1s-0.3-0.4-0.5-0.6c-0.2-0.1-0.5-0.2-0.9-0.2
		c-0.5,0-1,0.2-1.4,0.5s-0.6,1-0.6,1.9v4H359.4L359.4,385.5z"/>
</g>
</svg>
